<svg width="100" height="323" viewBox="0 0 100 323" fill="none" xmlns="http://www.w3.org/2000/svg">
<g filter="url(#filter0_d)">
<path d="M46 299C46 301.209 47.7909 303 50 303C52.2091 303 54 301.209 54 299H46ZM52.8284 21.1716C51.2663 19.6095 48.7337 19.6095 47.1716 21.1716L21.7157 46.6274C20.1536 48.1895 20.1536 50.7222 21.7157 52.2843C23.2778 53.8464 25.8105 53.8464 27.3726 52.2843L50 29.6569L72.6274 52.2843C74.1895 53.8464 76.7222 53.8464 78.2843 52.2843C79.8464 50.7222 79.8464 48.1895 78.2843 46.6274L52.8284 21.1716ZM54 299V24H46V299H54Z" fill="white"/>
</g>
<defs>
<filter id="filter0_d" x="0.544189" y="0" width="98.9117" height="323" filterUnits="userSpaceOnUse" color-interpolation-filters="sRGB">
<feFlood flood-opacity="0" result="BackgroundImageFix"/>
<feColorMatrix in="SourceAlpha" type="matrix" values="0 0 0 0 0 0 0 0 0 0 0 0 0 0 0 0 0 0 127 0" result="hardAlpha"/>
<feOffset/>
<feGaussianBlur stdDeviation="10"/>
<feComposite in2="hardAlpha" operator="out"/>
<feColorMatrix type="matrix" values="0 0 0 0 0 0 0 0 0 0 0 0 0 0 0 0 0 0 0.2 0"/>
<feBlend mode="normal" in2="BackgroundImageFix" result="effect1_dropShadow"/>
<feBlend mode="normal" in="SourceGraphic" in2="effect1_dropShadow" result="shape"/>
</filter>
</defs>
</svg>
