<svg width="1440" height="573" viewBox="0 0 1440 573" fill="none" xmlns="http://www.w3.org/2000/svg">
<path fill-rule="evenodd" clip-rule="evenodd" d="M664.572 572.04C907.912 565.084 1082.32 512.122 1248.82 466.428C1386.92 428.528 1447.45 380.456 1533.34 333.618C1634.58 278.404 1821.5 228.831 1795.56 168.26C1767.71 103.242 1630.27 31.8253 1393.27 6.53473C1158.09 -18.5612 915.428 35.8983 664.572 47.5728C475.449 56.3743 267.121 39.4007 106.797 66.405C-56.3405 93.8834 -112.831 145.327 -188.419 191.247C-271.576 241.766 -382.084 291.669 -353.351 345.951C-321.463 406.193 -203.463 462.828 -23.5068 502.798C166.977 545.106 413.325 579.222 664.572 572.04Z" fill="#B5F7F5"/>
</svg>
