<svg width="692" height="440" viewBox="0 0 692 440" fill="none" xmlns="http://www.w3.org/2000/svg">
<g filter="url(#filter0_d)">
<path d="M28.9104 81.6375C-1.0493 -13.4594 218.62 22.3005 332.2 52.0675C415.011 81.6375 526.833 8.89568 612.281 38.4656C658.611 54.4982 623.358 162.068 663.445 253.143C703.532 344.219 595.93 405.133 482.526 360.187C369.122 315.24 225.051 388.525 178.182 411.047C100.645 448.305 -26.4727 360.187 37.3497 313.466C86.7288 277.319 66.3601 200.509 28.9104 81.6375Z" fill="white"/>
</g>
<path d="M159.362 201.959C153.911 201.967 148.612 203.759 144.276 207.061C139.939 210.364 136.802 214.995 135.345 220.247V160H134.446V226.874C134.446 231.802 135.908 236.619 138.645 240.716C141.383 244.814 145.274 248.007 149.827 249.893C154.38 251.779 159.389 252.272 164.223 251.311C169.056 250.349 173.495 247.976 176.98 244.492C180.464 241.007 182.837 236.568 183.798 231.735C184.76 226.902 184.266 221.892 182.381 217.339C180.495 212.787 177.301 208.895 173.204 206.158C169.107 203.42 164.29 201.959 159.362 201.959ZM159.362 250.891C154.612 250.891 149.968 249.482 146.019 246.843C142.069 244.204 138.991 240.453 137.173 236.065C135.356 231.676 134.88 226.847 135.807 222.189C136.733 217.53 139.021 213.25 142.379 209.892C145.738 206.533 150.018 204.246 154.676 203.319C159.335 202.392 164.164 202.868 168.552 204.686C172.941 206.503 176.692 209.582 179.331 213.531C181.97 217.481 183.378 222.124 183.378 226.874C183.371 233.241 180.838 239.345 176.335 243.848C171.833 248.35 165.729 250.883 159.362 250.891Z" fill="black"/>
<path d="M407.347 202.158C401.896 202.166 396.598 203.958 392.261 207.261C387.925 210.563 384.788 215.194 383.331 220.447V160.2H382.426V227.074C382.425 232.003 383.885 236.822 386.623 240.921C389.361 245.02 393.253 248.215 397.806 250.102C402.36 251.989 407.371 252.484 412.206 251.523C417.04 250.562 421.481 248.189 424.967 244.704C428.453 241.219 430.827 236.778 431.789 231.944C432.751 227.109 432.258 222.098 430.372 217.544C428.486 212.99 425.292 209.097 421.193 206.359C417.095 203.62 412.277 202.158 407.347 202.158ZM407.347 251.09C402.597 251.091 397.953 249.684 394.003 247.046C390.053 244.407 386.973 240.657 385.155 236.268C383.336 231.88 382.86 227.051 383.786 222.392C384.712 217.733 386.999 213.453 390.357 210.093C393.716 206.734 397.995 204.446 402.654 203.519C407.313 202.592 412.142 203.067 416.531 204.885C420.92 206.702 424.671 209.78 427.31 213.73C429.949 217.68 431.358 222.323 431.358 227.074C431.35 233.44 428.818 239.543 424.317 244.045C419.816 248.547 413.714 251.081 407.347 251.09Z" fill="black"/>
<path d="M353.146 220.447C351.541 214.634 347.884 209.6 342.851 206.278C337.819 202.956 331.753 201.571 325.777 202.381C319.802 203.19 314.322 206.139 310.355 210.68C306.387 215.221 304.201 221.047 304.201 227.077C304.201 233.107 306.387 238.932 310.355 243.473C314.322 248.015 319.802 250.963 325.777 251.773C331.753 252.582 337.819 251.197 342.851 247.875C347.884 244.553 351.541 239.519 353.146 233.707V252.077H354.056V201.823H353.151L353.146 220.447ZM329.135 251.09C324.385 251.092 319.741 249.684 315.79 247.046C311.84 244.407 308.761 240.657 306.942 236.269C305.124 231.88 304.647 227.051 305.573 222.392C306.499 217.733 308.786 213.453 312.145 210.094C315.503 206.734 319.782 204.446 324.441 203.519C329.1 202.592 333.93 203.067 338.318 204.885C342.707 206.702 346.458 209.781 349.098 213.73C351.737 217.68 353.146 222.323 353.146 227.074C353.138 233.44 350.606 239.543 346.105 244.045C341.604 248.548 335.501 251.081 329.135 251.09Z" fill="black"/>
<path d="M283.598 182.46H258.906V183.364H283.598V252.16H284.503V160H283.598V182.46Z" fill="black"/>
<path d="M252.385 227.268C251.474 243.265 239.46 250.808 228.686 251.043H228.069C213.381 251.043 205.574 239.164 204.358 227.244V201.823H203.453V227.285H203.905L203.459 227.332C204.258 235.234 207.33 241.738 212.336 246.132C216.719 249.934 222.337 252.008 228.139 251.966H228.727C238.473 251.748 249.195 245.774 252.403 233.254V284.795H253.307V202.105H252.403L252.385 227.268Z" fill="black"/>
<path d="M522.46 213.326C521.914 211.605 517.578 211.423 509.535 212.774C507.902 213.05 506.104 213.397 504.195 213.802H504.136V213.855C501.268 209.266 496.984 205.735 491.932 203.796C486.88 201.856 481.334 201.614 476.131 203.104C470.929 204.595 466.353 207.739 463.095 212.06C459.837 216.381 458.074 221.644 458.071 227.056C458.071 227.591 458.071 228.119 458.13 228.648C446.674 233.759 444.747 236.438 445.17 237.784C445.475 238.747 446.932 239.235 449.594 239.235C452.435 239.157 455.265 238.856 458.059 238.336C458.905 238.189 459.787 238.03 460.691 237.854L460.55 237.925C463.009 243.003 467.118 247.096 472.205 249.535C477.293 251.975 483.057 252.616 488.556 251.354C494.055 250.092 498.963 247.001 502.477 242.587C505.991 238.174 507.904 232.698 507.902 227.056C507.902 226.469 507.902 225.881 507.838 225.323L506.939 225.388C506.98 225.94 506.997 226.504 506.997 227.056C507 232.476 505.17 237.737 501.803 241.984C498.437 246.231 493.732 249.215 488.455 250.449C483.178 251.684 477.639 251.096 472.737 248.783C467.836 246.469 463.862 242.566 461.461 237.707C469.633 236.022 477.709 233.901 485.654 231.351C495.876 228.108 505.317 224.506 512.226 221.199C519.564 217.697 523.007 215.048 522.46 213.326ZM509.717 213.667C512.476 213.149 515.272 212.85 518.077 212.774C521.179 212.774 521.555 213.462 521.602 213.597C521.649 213.732 521.896 215.582 511.85 220.388C510.493 221.034 509.03 221.698 507.485 222.368C506.971 219.652 506.006 217.04 504.63 214.642C506.433 214.261 508.149 213.932 509.741 213.667H509.717ZM459.064 228.707C459.029 228.166 458.999 227.62 458.999 227.074C459.005 221.085 461.247 215.314 465.287 210.893C469.326 206.473 474.872 203.72 480.836 203.177C486.8 202.633 492.752 204.338 497.524 207.955C502.297 211.573 505.545 216.843 506.633 222.732C500.529 225.329 493.191 228.02 485.39 230.487C475.202 233.712 465.456 236.192 457.936 237.461C446.956 239.317 446.116 237.713 446.057 237.525C445.646 236.227 450.399 233.154 458.23 229.623C458.42 231.531 458.832 233.41 459.458 235.222L460.31 234.928C459.674 233.086 459.268 231.172 459.099 229.23L459.064 228.707Z" fill="black"/>
<path d="M288.146 276.094C288.89 276.963 289.264 278.09 289.185 279.231V284.877H287.576V279.372C287.629 278.562 287.364 277.763 286.835 277.146C286.573 276.882 286.258 276.676 285.911 276.541C285.564 276.407 285.192 276.346 284.82 276.364C284.425 276.347 284.03 276.415 283.663 276.564C283.295 276.713 282.965 276.939 282.694 277.228C282.12 277.93 281.836 278.826 281.9 279.731V284.877H280.291V271.753H281.9V277.434C282.114 276.692 282.579 276.048 283.216 275.612C283.863 275.182 284.625 274.959 285.402 274.972C285.913 274.955 286.421 275.047 286.894 275.24C287.366 275.433 287.793 275.724 288.146 276.094Z" fill="#1D1D1B"/>
<path d="M300.124 275.136V284.848H298.515V282.556C298.301 283.296 297.833 283.937 297.193 284.366C296.539 284.794 295.771 285.013 294.99 284.994C294.485 285.014 293.981 284.927 293.512 284.74C293.042 284.552 292.617 284.269 292.264 283.907C291.521 283.042 291.148 281.92 291.224 280.782V275.125H292.834V280.623C292.78 281.437 293.045 282.24 293.574 282.862C293.836 283.129 294.151 283.337 294.5 283.473C294.848 283.608 295.221 283.669 295.595 283.649C295.989 283.667 296.383 283.6 296.749 283.452C297.115 283.304 297.445 283.078 297.716 282.791C298.292 282.09 298.578 281.194 298.515 280.289V275.125L300.124 275.136Z" fill="#1D1D1B"/>
<path d="M317.203 276.094C317.948 276.963 318.321 278.089 318.243 279.231V284.877H316.633V279.372C316.687 278.578 316.435 277.794 315.928 277.181C315.682 276.923 315.384 276.722 315.054 276.59C314.723 276.458 314.368 276.399 314.013 276.417C313.632 276.401 313.251 276.468 312.898 276.613C312.545 276.758 312.228 276.977 311.968 277.257C311.411 277.956 311.136 278.839 311.199 279.73V284.877H309.589V279.372C309.644 278.577 309.389 277.792 308.878 277.181C308.633 276.924 308.336 276.723 308.006 276.592C307.677 276.46 307.323 276.4 306.969 276.417C306.585 276.401 306.202 276.468 305.846 276.613C305.491 276.758 305.17 276.977 304.907 277.257C304.349 277.956 304.075 278.839 304.137 279.73V284.877H302.527V275.136H304.119V277.345C304.322 276.627 304.771 276.003 305.388 275.583C306.022 275.178 306.758 274.962 307.509 274.962C308.261 274.962 308.997 275.178 309.63 275.583C310.262 276.034 310.721 276.687 310.934 277.433C311.173 276.688 311.652 276.043 312.297 275.6C312.933 275.17 313.686 274.945 314.453 274.954C314.967 274.936 315.478 275.028 315.952 275.225C316.427 275.421 316.853 275.718 317.203 276.094Z" fill="#1D1D1B"/>
<path d="M326.938 275.718C327.586 276.184 328.067 276.848 328.306 277.61V275.136H329.916V284.848H328.306V282.368C328.067 283.132 327.587 283.798 326.938 284.266C326.234 284.75 325.394 284.997 324.541 284.971C323.734 284.988 322.938 284.785 322.238 284.383C321.555 283.973 321.006 283.373 320.657 282.656C320.25 281.835 320.049 280.928 320.07 280.012C320.05 279.093 320.252 278.182 320.657 277.357C321.002 276.629 321.551 276.016 322.238 275.595C322.938 275.193 323.734 274.989 324.541 275.007C325.395 274.983 326.235 275.232 326.938 275.718ZM322.62 277.392C322.04 278.138 321.726 279.056 321.726 280.001C321.726 280.945 322.04 281.863 322.62 282.609C322.922 282.924 323.288 283.17 323.693 283.333C324.098 283.496 324.533 283.572 324.97 283.555C325.569 283.564 326.159 283.412 326.679 283.114C327.18 282.818 327.588 282.387 327.854 281.869C328.133 281.285 328.277 280.645 328.277 279.998C328.277 279.35 328.133 278.711 327.854 278.127C327.591 277.605 327.183 277.17 326.679 276.875C326.158 276.582 325.568 276.432 324.97 276.441C324.533 276.425 324.098 276.501 323.693 276.665C323.288 276.829 322.922 277.077 322.62 277.392Z" fill="#1D1D1B"/>
<path d="M340.162 276.094C340.909 276.962 341.285 278.089 341.208 279.231V284.877H339.598V279.372C339.652 278.561 339.384 277.76 338.852 277.146C338.589 276.882 338.274 276.676 337.927 276.541C337.58 276.407 337.209 276.346 336.837 276.364C336.441 276.347 336.046 276.416 335.679 276.565C335.312 276.714 334.982 276.94 334.71 277.228C334.136 277.93 333.852 278.826 333.917 279.731V284.877H332.319V275.136H333.929V277.433C334.142 276.692 334.607 276.047 335.245 275.612C335.892 275.183 336.654 274.96 337.43 274.972C337.939 274.956 338.445 275.048 338.916 275.241C339.387 275.434 339.811 275.725 340.162 276.094Z" fill="#1D1D1B"/>
<path d="M356.706 284.848L353.98 281.84C353.972 282.08 353.937 282.318 353.874 282.55C353.761 283.249 353.387 283.879 352.828 284.313C352.243 284.767 351.518 285.004 350.778 284.983C350.1 284.998 349.43 284.836 348.833 284.513C348.275 284.212 347.814 283.757 347.506 283.203C347.18 282.611 347.016 281.945 347.03 281.27C347.012 280.609 347.159 279.955 347.459 279.366C347.726 278.856 348.134 278.432 348.634 278.144C349.124 277.865 349.679 277.721 350.243 277.727C350.373 277.73 350.503 277.742 350.631 277.762L350.367 277.428C350.069 277.081 349.816 276.698 349.615 276.288C349.436 275.891 349.348 275.46 349.356 275.025C349.357 274.537 349.493 274.059 349.749 273.644C350.005 273.229 350.372 272.894 350.807 272.675C351.344 272.404 351.94 272.271 352.54 272.287C353.393 272.222 354.237 272.494 354.89 273.045C355.53 273.807 355.9 274.759 355.942 275.753C355.95 275.841 355.95 275.93 355.942 276.018H354.42C354.43 275.92 354.43 275.822 354.42 275.724C354.42 275.612 354.42 275.536 354.42 275.489C354.44 274.984 354.263 274.491 353.927 274.114C353.751 273.947 353.542 273.817 353.313 273.734C353.085 273.652 352.842 273.617 352.599 273.632C352.374 273.621 352.149 273.655 351.938 273.734C351.726 273.813 351.534 273.934 351.371 274.091C351.225 274.237 351.109 274.411 351.031 274.602C350.953 274.794 350.915 275 350.919 275.207C350.911 275.53 350.981 275.851 351.125 276.141C351.309 276.473 351.532 276.783 351.788 277.063L358.404 284.883L356.706 284.848ZM352.382 282.973C352.589 282.765 352.752 282.516 352.859 282.242C352.966 281.968 353.016 281.675 353.005 281.381C353.01 280.948 352.887 280.523 352.652 280.159C352.423 279.799 352.108 279.5 351.736 279.29C351.377 279.086 350.973 278.976 350.561 278.973C350.281 278.962 350.003 279.009 349.742 279.11C349.482 279.211 349.244 279.364 349.045 279.56C348.839 279.783 348.681 280.045 348.58 280.331C348.479 280.617 348.437 280.92 348.457 281.223C348.441 281.542 348.492 281.862 348.608 282.161C348.723 282.459 348.9 282.73 349.127 282.956C349.577 283.377 350.174 283.605 350.79 283.59C351.083 283.598 351.374 283.548 351.648 283.442C351.921 283.336 352.171 283.177 352.382 282.973Z" fill="#1D1D1B"/>
<path d="M368.42 283.432V284.848H367.216C366.412 284.911 365.615 284.658 364.995 284.143C364.724 283.818 364.52 283.444 364.394 283.041C364.268 282.637 364.223 282.213 364.261 281.793V276.558H362.81V275.16H364.261V272.733H365.888V275.16H368.402V276.558H365.888V281.845C365.837 282.301 365.961 282.759 366.235 283.126C366.568 283.387 366.988 283.511 367.41 283.473L368.42 283.432Z" fill="#1D1D1B"/>
<path d="M379.071 280.336H371.299C371.282 280.794 371.358 281.252 371.521 281.681C371.685 282.11 371.933 282.501 372.251 282.833C372.843 283.384 373.627 283.682 374.436 283.661C375.134 283.689 375.82 283.482 376.387 283.073C376.903 282.693 377.251 282.126 377.356 281.493H379.071C378.959 282.149 378.689 282.768 378.284 283.297C377.865 283.834 377.32 284.259 376.698 284.536C376.008 284.839 375.26 284.989 374.507 284.977C373.643 284.998 372.789 284.796 372.027 284.389C371.308 283.99 370.72 283.39 370.335 282.662C369.921 281.844 369.719 280.935 369.748 280.019C369.72 279.098 369.922 278.186 370.335 277.363C370.715 276.623 371.303 276.01 372.027 275.601C372.789 275.194 373.643 274.992 374.507 275.013C375.366 274.99 376.217 275.192 376.974 275.601C377.65 275.977 378.208 276.534 378.584 277.21C378.968 277.89 379.17 278.657 379.171 279.437C379.166 279.739 379.133 280.04 379.071 280.336ZM377.156 277.751C376.905 277.287 376.517 276.912 376.046 276.676C375.569 276.435 375.041 276.313 374.507 276.317C373.685 276.295 372.885 276.59 372.274 277.14C371.958 277.457 371.708 277.835 371.541 278.251C371.373 278.667 371.291 279.112 371.299 279.56H377.515C377.57 278.935 377.446 278.307 377.156 277.751Z" fill="#1D1D1B"/>
<path d="M388.448 276C389.263 276.666 389.799 277.614 389.952 278.655H388.254C388.161 278.003 387.815 277.414 387.29 277.016C386.721 276.611 386.033 276.404 385.334 276.429C384.792 276.425 384.258 276.56 383.783 276.822C383.302 277.096 382.912 277.505 382.661 277.997C382.382 278.624 382.238 279.303 382.238 279.989C382.238 280.675 382.382 281.354 382.661 281.981C382.912 282.473 383.302 282.882 383.783 283.156C384.334 283.446 384.954 283.579 385.575 283.542C386.197 283.505 386.796 283.298 387.308 282.944C387.832 282.543 388.178 281.952 388.272 281.299H389.969C389.822 282.344 389.285 283.295 388.465 283.96C387.585 284.636 386.496 284.983 385.387 284.942C384.524 284.962 383.67 284.759 382.908 284.354C382.19 283.954 381.604 283.354 381.222 282.627C380.804 281.81 380.602 280.9 380.634 279.983C380.603 279.063 380.805 278.149 381.222 277.328C381.599 276.588 382.185 275.975 382.908 275.565C383.67 275.16 384.524 274.957 385.387 274.978C386.495 274.95 387.578 275.312 388.448 276Z" fill="#1D1D1B"/>
<path d="M399.733 276.094C400.483 276.961 400.858 278.089 400.779 279.231V284.877H399.169V279.372C399.224 278.561 398.956 277.761 398.423 277.146C398.161 276.882 397.846 276.675 397.499 276.541C397.151 276.406 396.78 276.346 396.408 276.364C396.013 276.347 395.619 276.415 395.253 276.564C394.887 276.713 394.557 276.94 394.287 277.228C393.708 277.928 393.422 278.825 393.488 279.731V284.877H391.878V271.753H393.488V277.434C393.701 276.69 394.169 276.046 394.81 275.612C395.455 275.183 396.215 274.96 396.99 274.972C397.5 274.955 398.009 275.045 398.482 275.239C398.955 275.432 399.381 275.724 399.733 276.094Z" fill="#1D1D1B"/>
<path d="M409.774 273.274C409.586 273.491 409.445 273.745 409.359 274.018C409.273 274.292 409.245 274.581 409.274 274.866V275.136H411.571V276.552H409.28V284.847H407.67V276.552H406.272V275.136H407.67V274.743C407.67 272.42 408.973 271.312 411.577 271.417V272.833C410.943 272.757 410.302 272.914 409.774 273.274Z" fill="#1D1D1B"/>
<path d="M420.055 275.612C420.804 276.012 421.417 276.626 421.817 277.375C422.25 278.192 422.466 279.106 422.446 280.03C422.468 280.951 422.251 281.862 421.817 282.674C421.413 283.411 420.799 284.012 420.055 284.401C419.279 284.795 418.422 285 417.552 285C416.682 285 415.825 284.795 415.049 284.401C414.307 284.009 413.694 283.409 413.287 282.674C412.848 281.863 412.63 280.952 412.652 280.03C412.631 279.105 412.849 278.19 413.287 277.375C413.69 276.628 414.302 276.015 415.049 275.612C415.825 275.219 416.682 275.013 417.552 275.013C418.422 275.013 419.279 275.219 420.055 275.612ZM415.942 276.817C415.446 277.087 415.038 277.495 414.767 277.992C414.469 278.61 414.315 279.288 414.315 279.974C414.315 280.661 414.469 281.339 414.767 281.957C415.038 282.454 415.446 282.862 415.942 283.132C416.437 283.391 416.988 283.524 417.546 283.52C418.103 283.525 418.652 283.392 419.144 283.132C419.642 282.863 420.05 282.455 420.319 281.957C420.617 281.339 420.771 280.661 420.771 279.974C420.771 279.288 420.617 278.61 420.319 277.992C420.05 277.494 419.642 277.085 419.144 276.817C418.652 276.555 418.103 276.42 417.546 276.423C416.989 276.422 416.441 276.557 415.948 276.817H415.942Z" fill="#1D1D1B"/>
<path d="M427.351 275.506C428.019 275.122 428.779 274.929 429.549 274.948V276.711H429.055C428.252 276.674 427.462 276.922 426.823 277.41C426.512 277.703 426.272 278.064 426.123 278.464C425.973 278.864 425.917 279.293 425.959 279.719V284.83H424.344V275.136H425.959V277.099C426.252 276.44 426.738 275.885 427.351 275.506Z" fill="#1D1D1B"/>
<path d="M439.794 283.432V284.848H438.619C437.815 284.911 437.019 284.658 436.399 284.143C435.905 283.667 435.664 282.879 435.664 281.793V276.558H434.213V275.16H435.664V272.733H437.292V275.16H439.806V276.558H437.292V281.845C437.241 282.301 437.365 282.759 437.638 283.126C437.972 283.387 438.392 283.511 438.813 283.473L439.794 283.432Z" fill="#1D1D1B"/>
<path d="M448.489 275.612C449.237 276.014 449.85 276.627 450.251 277.375C450.684 278.192 450.901 279.106 450.88 280.03C450.902 280.951 450.686 281.862 450.251 282.674C449.845 283.41 449.233 284.01 448.489 284.401C447.713 284.795 446.856 285 445.986 285C445.116 285 444.259 284.795 443.483 284.401C442.741 284.009 442.129 283.409 441.721 282.674C441.283 281.863 441.064 280.952 441.087 280.03C441.065 279.105 441.284 278.19 441.721 277.375C442.124 276.628 442.737 276.015 443.483 275.612C444.259 275.219 445.116 275.013 445.986 275.013C446.856 275.013 447.713 275.219 448.489 275.612ZM444.376 276.817C443.881 277.089 443.474 277.496 443.201 277.992C442.907 278.611 442.755 279.289 442.755 279.974C442.755 280.66 442.907 281.338 443.201 281.957C443.474 282.453 443.881 282.86 444.376 283.132C444.872 283.385 445.421 283.517 445.977 283.517C446.534 283.517 447.082 283.385 447.578 283.132C448.076 282.863 448.484 282.455 448.753 281.957C449.051 281.339 449.206 280.661 449.206 279.974C449.206 279.288 449.051 278.61 448.753 277.992C448.484 277.494 448.076 277.085 447.578 276.817C447.084 276.558 446.535 276.423 445.977 276.423C445.42 276.423 444.871 276.558 444.376 276.817Z" fill="#1D1D1B"/>
<path d="M467.442 276.094C468.187 276.963 468.56 278.089 468.482 279.231V284.877H466.854V279.372C466.91 278.579 466.66 277.795 466.155 277.181C465.909 276.924 465.611 276.722 465.281 276.59C464.95 276.459 464.595 276.399 464.24 276.417C463.859 276.401 463.478 276.468 463.125 276.613C462.772 276.758 462.455 276.978 462.195 277.257C461.638 277.956 461.363 278.839 461.426 279.731V284.877H459.816V279.372C459.871 278.577 459.616 277.792 459.105 277.181C458.86 276.924 458.563 276.723 458.233 276.592C457.904 276.46 457.55 276.4 457.196 276.417C456.812 276.4 456.429 276.467 456.073 276.612C455.717 276.757 455.397 276.977 455.134 277.257C454.576 277.956 454.302 278.839 454.364 279.731V284.877H452.754V275.136H454.364V277.345C454.567 276.627 455.016 276.003 455.633 275.583C456.266 275.178 457.002 274.963 457.754 274.963C458.506 274.963 459.242 275.178 459.875 275.583C460.506 276.034 460.966 276.687 461.179 277.433C461.417 276.688 461.897 276.043 462.542 275.6C463.178 275.17 463.93 274.944 464.698 274.954C465.21 274.937 465.72 275.029 466.194 275.226C466.667 275.422 467.093 275.719 467.442 276.094Z" fill="#1D1D1B"/>
<path d="M477.717 275.612C478.466 276.012 479.08 276.626 479.479 277.375C479.915 278.191 480.132 279.106 480.108 280.03C480.132 280.951 479.916 281.863 479.479 282.674C479.075 283.411 478.462 284.012 477.717 284.401C476.941 284.795 476.084 285 475.214 285C474.344 285 473.487 284.795 472.712 284.401C471.969 284.009 471.357 283.409 470.949 282.674C470.511 281.863 470.292 280.952 470.315 280.03C470.293 279.105 470.512 278.19 470.949 277.375C471.352 276.628 471.965 276.015 472.712 275.612C473.487 275.219 474.344 275.013 475.214 275.013C476.084 275.013 476.941 275.219 477.717 275.612ZM473.605 276.817C473.108 277.087 472.7 277.495 472.43 277.992C472.132 278.61 471.977 279.288 471.977 279.974C471.977 280.661 472.132 281.339 472.43 281.957C472.7 282.454 473.108 282.862 473.605 283.132C474.101 283.386 474.651 283.518 475.208 283.518C475.766 283.518 476.316 283.386 476.812 283.132C477.309 282.862 477.717 282.454 477.987 281.957C478.285 281.339 478.44 280.661 478.44 279.974C478.44 279.288 478.285 278.61 477.987 277.992C477.717 277.495 477.309 277.087 476.812 276.817C476.317 276.558 475.767 276.423 475.208 276.423C474.65 276.423 474.1 276.558 473.605 276.817Z" fill="#1D1D1B"/>
<path d="M485.019 275.507C485.684 275.121 486.442 274.928 487.211 274.948V276.711H486.717C485.914 276.675 485.124 276.923 484.485 277.41C484.174 277.703 483.934 278.064 483.785 278.464C483.635 278.864 483.579 279.294 483.621 279.719V284.83H482.005V275.136H483.621V277.099C483.915 276.438 484.402 275.883 485.019 275.507Z" fill="#1D1D1B"/>
<path d="M491.634 275.506C492.299 275.122 493.058 274.928 493.826 274.948V276.711H493.332C492.529 276.675 491.739 276.923 491.1 277.41C490.789 277.703 490.55 278.064 490.4 278.464C490.25 278.864 490.194 279.293 490.236 279.719V284.83H488.626V275.136H490.236V277.099C490.53 276.438 491.018 275.883 491.634 275.506Z" fill="#1D1D1B"/>
<path d="M502.151 275.612C502.9 276.012 503.513 276.626 503.913 277.375C504.349 278.191 504.565 279.106 504.542 280.03C504.566 280.951 504.349 281.863 503.913 282.674C503.509 283.411 502.895 284.012 502.151 284.401C501.375 284.795 500.518 285 499.648 285C498.778 285 497.921 284.795 497.145 284.401C496.404 284.007 495.792 283.407 495.383 282.674C494.944 281.863 494.726 280.952 494.748 280.03C494.727 279.105 494.945 278.19 495.383 277.375C495.787 276.629 496.399 276.017 497.145 275.612C497.921 275.219 498.778 275.013 499.648 275.013C500.518 275.013 501.375 275.219 502.151 275.612ZM498.038 276.817C497.542 277.087 497.134 277.495 496.863 277.992C496.565 278.61 496.411 279.288 496.411 279.974C496.411 280.661 496.565 281.339 496.863 281.957C497.134 282.454 497.542 282.862 498.038 283.132C498.535 283.386 499.084 283.518 499.642 283.518C500.2 283.518 500.749 283.386 501.246 283.132C501.742 282.862 502.15 282.454 502.421 281.957C502.719 281.339 502.873 280.661 502.873 279.974C502.873 279.288 502.719 278.61 502.421 277.992C502.15 277.495 501.742 277.087 501.246 276.817C500.751 276.558 500.201 276.423 499.642 276.423C499.084 276.423 498.533 276.558 498.038 276.817Z" fill="#1D1D1B"/>
<path d="M519.781 275.136L516.985 284.848H515.252L512.584 276.94L509.894 284.848H508.131L505.37 275.136H506.997L509.065 283.308L511.756 275.136H513.436L516.145 283.291L518.23 275.136H519.781Z" fill="#1D1D1B"/>
<path d="M522.296 282.956V284.848H520.351V282.956H522.296Z" fill="#1D1D1B"/>
<defs>
<filter id="filter0_d" x="0" y="0" width="692" height="440" filterUnits="userSpaceOnUse" color-interpolation-filters="sRGB">
<feFlood flood-opacity="0" result="BackgroundImageFix"/>
<feColorMatrix in="SourceAlpha" type="matrix" values="0 0 0 0 0 0 0 0 0 0 0 0 0 0 0 0 0 0 127 0" result="hardAlpha"/>
<feOffset/>
<feGaussianBlur stdDeviation="10"/>
<feComposite in2="hardAlpha" operator="out"/>
<feColorMatrix type="matrix" values="0 0 0 0 0 0 0 0 0 0 0 0 0 0 0 0 0 0 0.2 0"/>
<feBlend mode="normal" in2="BackgroundImageFix" result="effect1_dropShadow"/>
<feBlend mode="normal" in="SourceGraphic" in2="effect1_dropShadow" result="shape"/>
</filter>
</defs>
</svg>
