<svg width="601" height="439" viewBox="0 0 601 439" fill="none" xmlns="http://www.w3.org/2000/svg">
<g filter="url(#filter0_d)">
<path d="M193.366 20.0102C66.8655 18.5102 -23.4046 182.985 41.7304 288.484C130.595 423.956 131.733 336.833 367.376 405.51C494.241 442.484 607.241 400.484 571.741 288.484C542.368 195.814 624.713 147.805 545.241 109.984C503.741 90.2339 490.741 76.9839 401.241 69.9839C281.67 60.632 319.866 21.5102 193.366 20.0102Z" fill="white"/>
</g>
<g filter="url(#filter1_d)">
<path d="M192.638 166H86.375C81.1973 166 77 170.197 77 175.375V281.625C77 286.803 81.1973 291 86.375 291H192.638C197.815 291 202.013 286.803 202.013 281.625V175.375C202.013 170.197 197.815 166 192.638 166Z" fill="white"/>
</g>
<path d="M134.803 192.717L110.794 216.716H134.803V192.717Z" fill="#5C3E8D"/>
<path d="M110.794 216.716V263.977C110.792 264.066 110.809 264.155 110.842 264.238C110.876 264.321 110.926 264.396 110.989 264.46C111.053 264.523 111.128 264.573 111.211 264.606C111.294 264.64 111.383 264.656 111.473 264.655H134.094C134.183 264.656 134.272 264.64 134.355 264.606C134.438 264.573 134.514 264.523 134.577 264.46C134.641 264.396 134.691 264.321 134.724 264.238C134.758 264.155 134.775 264.066 134.773 263.977V216.716H110.794Z" fill="#9C7FE5"/>
<path d="M167.76 215.92V193.542C167.76 193.437 167.74 193.334 167.7 193.237C167.66 193.14 167.601 193.052 167.527 192.978C167.453 192.904 167.365 192.845 167.268 192.806C167.171 192.766 167.067 192.746 166.962 192.746H134.802V216.716H166.933C167.04 216.719 167.146 216.701 167.246 216.663C167.346 216.624 167.437 216.566 167.514 216.492C167.591 216.418 167.653 216.329 167.695 216.231C167.737 216.132 167.759 216.027 167.76 215.92Z" fill="#D5ADF7"/>
<path d="M152.462 247.879C159.1 247.879 164.481 242.507 164.481 235.879C164.481 229.252 159.1 223.88 152.462 223.88C145.824 223.88 140.443 229.252 140.443 235.879C140.443 242.507 145.824 247.879 152.462 247.879Z" fill="#5C3E8D"/>
<path d="M225.19 208.721C225.19 208.221 225.315 207.846 225.565 207.596C225.811 207.323 226.155 207.158 226.523 207.138H259.375C259.917 207.138 260.291 207.304 260.541 207.596C260.807 207.941 260.939 208.37 260.916 208.805V217.266C260.91 217.677 260.763 218.075 260.5 218.391C260.208 218.766 259.834 218.933 259.292 218.933H238.431V229.561H253.837C254.232 229.551 254.616 229.684 254.92 229.936C255.211 230.186 255.378 230.561 255.378 231.104V239.315C255.368 239.719 255.238 240.111 255.003 240.44C254.885 240.617 254.724 240.76 254.534 240.855C254.344 240.95 254.132 240.993 253.92 240.982H238.431V262.113C238.431 263.113 237.89 263.572 236.849 263.572H226.398C225.565 263.447 225.148 262.988 225.148 262.113V208.721H225.19Z" fill="#5C3E8D"/>
<path d="M268.036 209.597C268.011 208.93 268.201 208.273 268.577 207.722C268.952 207.222 269.577 206.972 270.451 206.972H278.862C279.11 206.988 279.352 207.059 279.569 207.18C279.84 207.309 280.081 207.494 280.276 207.722C280.513 207.959 280.697 208.243 280.818 208.555C280.974 208.894 281.046 209.266 281.026 209.639V260.946C281.026 261.821 280.776 262.488 280.276 262.905C279.777 263.363 279.152 263.572 278.361 263.572H270.408C269.534 263.572 268.868 263.363 268.534 262.905C268.16 262.447 267.993 261.78 267.993 260.946V209.597L268.036 209.597Z" fill="#5C3E8D"/>
<path d="M325.83 258.319C323.848 260.162 321.548 261.63 319.043 262.654C316.51 263.71 313.792 264.248 311.049 264.238C308.01 264.247 304.998 263.667 302.179 262.529C299.455 261.429 296.967 259.816 294.851 257.777C292.728 255.742 291.029 253.305 289.855 250.609C288.593 247.791 287.954 244.735 287.981 241.647C287.979 239.665 288.23 237.689 288.73 235.771C289.217 233.932 289.916 232.155 290.812 230.477C291.712 228.83 292.817 227.303 294.102 225.934C295.378 224.563 296.835 223.371 298.432 222.392C300.05 221.385 301.802 220.614 303.637 220.099C305.572 219.543 307.577 219.262 309.591 219.266C311.463 219.261 313.326 219.513 315.129 220.016C316.892 220.507 318.585 221.222 320.167 222.142C321.735 223.046 323.177 224.153 324.456 225.434C325.739 226.703 326.871 228.115 327.829 229.644C328.769 231.163 329.498 232.804 329.994 234.52C330.51 236.252 330.776 238.048 330.785 239.855C330.785 241.064 330.785 242.022 330.743 242.773C330.702 243.523 330.535 244.148 330.202 244.566C329.869 245.024 329.369 245.316 328.62 245.482C327.87 245.649 326.788 245.732 325.33 245.732H300.639C300.785 246.951 301.201 248.122 301.856 249.16C302.512 250.198 303.39 251.077 304.428 251.733C305.323 252.31 306.308 252.733 307.343 252.983C308.296 253.223 309.275 253.349 310.258 253.358C311.11 253.356 311.961 253.272 312.797 253.108C313.655 252.93 314.503 252.708 315.337 252.441C316.112 252.166 316.863 251.832 317.586 251.441C318.168 251.112 318.713 250.721 319.21 250.273C319.513 250.029 319.833 249.806 320.168 249.606C320.418 249.455 320.708 249.383 321 249.398C321.328 249.404 321.646 249.506 321.916 249.69C322.287 249.953 322.635 250.245 322.957 250.565L326.58 254.691C326.787 254.928 326.955 255.195 327.08 255.483C327.148 255.727 327.176 255.981 327.163 256.233C327.173 256.654 327.041 257.065 326.788 257.401C326.501 257.739 326.18 258.047 325.83 258.319ZM309.3 229.727C308.411 229.722 307.53 229.907 306.718 230.269C305.881 230.636 305.097 231.112 304.386 231.686C303.642 232.272 302.983 232.96 302.429 233.729C301.883 234.444 301.409 235.212 301.014 236.021H318.543C318.074 235.165 317.546 234.343 316.961 233.562C316.41 232.816 315.767 232.144 315.046 231.561C314.309 230.98 313.478 230.528 312.589 230.227C311.528 229.877 310.416 229.708 309.3 229.727H309.3Z" fill="#5C3E8D"/>
<path d="M331.493 262.237C331.41 261.903 331.493 261.612 331.66 261.278C331.807 261.002 331.974 260.738 332.159 260.486L345.817 241.23L332.867 222.808C332.649 222.504 332.454 222.183 332.284 221.85C332.14 221.551 332.069 221.222 332.076 220.891C332.089 220.745 332.138 220.604 332.217 220.48C332.297 220.357 332.406 220.254 332.534 220.182C332.784 219.974 333.241 219.891 333.866 219.891H344.65C344.844 219.895 345.034 219.941 345.207 220.028C345.379 220.114 345.531 220.238 345.65 220.391C346.005 220.794 346.326 221.226 346.608 221.683L353.145 232.311C353.561 231.686 354.102 230.894 354.644 229.977C355.227 229.018 355.81 228.06 356.392 227.018C357.017 226.017 357.6 225.017 358.141 224.059C358.683 223.1 359.182 222.266 359.599 221.6C359.886 221.112 360.252 220.676 360.681 220.307C361.016 220.054 361.427 219.922 361.847 219.932H372.715C372.981 219.919 373.247 219.973 373.487 220.09C373.727 220.206 373.934 220.382 374.089 220.599C374.226 220.808 374.285 221.059 374.255 221.308C374.206 221.643 374.044 221.951 373.797 222.183L360.39 241.147L373.756 259.819C374.04 260.206 374.277 260.626 374.463 261.069C374.661 261.44 374.747 261.859 374.713 262.278C374.694 262.456 374.641 262.629 374.555 262.786C374.469 262.944 374.353 263.083 374.213 263.195C373.922 263.445 373.38 263.57 372.631 263.57H361.513C360.473 263.57 359.723 262.986 359.223 261.777L353.103 250.774L346.94 261.902C346.714 262.371 346.387 262.784 345.982 263.111C345.669 263.385 345.274 263.546 344.858 263.569H332.908C332.618 263.57 332.331 263.498 332.075 263.361C331.825 263.236 331.659 262.986 331.492 262.611L331.493 262.237Z" fill="#5C3E8D"/>
<path d="M421.348 262.987C421.072 263.226 420.744 263.397 420.391 263.487C420.076 263.555 419.754 263.583 419.433 263.571H414.27C413.899 263.57 413.532 263.499 413.187 263.362C412.904 263.216 412.65 263.018 412.438 262.779C412.223 262.517 412.054 262.221 411.938 261.904C411.808 261.577 411.697 261.243 411.605 260.903L410.898 257.527C410.565 258.236 409.982 258.986 409.191 259.778C408.305 260.628 407.311 261.356 406.234 261.945C404.948 262.658 403.577 263.204 402.154 263.571C400.525 264.013 398.845 264.238 397.157 264.238C394.534 264.238 392.244 263.737 390.245 262.737C388.265 261.758 386.529 260.348 385.165 258.611C383.759 256.791 382.7 254.729 382.042 252.525C381.316 250.12 380.951 247.62 380.959 245.107V222.6C380.959 221.725 381.167 221.058 381.542 220.641C381.917 220.183 382.5 219.975 383.332 219.975H391.244C392.243 219.975 392.909 220.141 393.283 220.475C393.657 220.808 393.824 221.475 393.824 222.434V244.774C393.825 245.735 394.023 246.685 394.407 247.566C394.767 248.436 395.29 249.228 395.948 249.9C396.579 250.579 397.345 251.118 398.196 251.484C399.062 251.869 399.998 252.067 400.945 252.068C401.849 252.063 402.747 251.922 403.609 251.651C404.564 251.374 405.465 250.937 406.274 250.359C407.109 249.765 407.805 248.997 408.314 248.108C408.886 247.107 409.174 245.968 409.147 244.815V222.475C409.155 222.077 409.225 221.683 409.355 221.307C409.478 220.952 409.712 220.645 410.021 220.431C410.286 220.28 410.565 220.154 410.854 220.056C411.153 219.983 411.462 219.955 411.77 219.973H419.515C420.514 219.973 421.222 220.223 421.638 220.681C422.084 221.219 422.321 221.9 422.304 222.599V261.027C422.312 261.448 422.212 261.864 422.013 262.236C421.83 262.591 421.557 262.892 421.222 263.111L421.348 262.987Z" fill="#5C3E8D"/>
<path d="M461.53 259.278C460.869 259.941 460.159 260.554 459.406 261.112C458.603 261.74 457.738 262.284 456.824 262.737C455.866 263.226 454.862 263.617 453.826 263.905C452.727 264.206 451.593 264.36 450.453 264.363C447.331 264.363 444.458 263.78 441.876 262.613C439.319 261.5 437.022 259.868 435.131 257.82C433.213 255.736 431.714 253.302 430.717 250.651C429.634 247.9 429.135 244.941 429.135 241.773C429.117 238.743 429.653 235.734 430.717 232.896C431.799 230.145 433.257 227.769 435.131 225.769C437.022 223.72 439.319 222.088 441.876 220.976C444.58 219.793 447.503 219.197 450.453 219.225C451.614 219.223 452.771 219.334 453.91 219.558C454.892 219.751 455.844 220.074 456.741 220.517C457.581 220.919 458.376 221.408 459.114 221.976C459.833 222.557 460.514 223.183 461.154 223.851V209.513C461.132 208.826 461.37 208.157 461.82 207.638C462.278 207.138 462.944 206.888 463.819 206.888H471.522C471.851 206.901 472.175 206.972 472.479 207.096C472.815 207.22 473.125 207.403 473.395 207.638C473.683 207.857 473.912 208.143 474.062 208.471C474.232 208.807 474.318 209.179 474.311 209.555V260.904C474.311 262.654 473.396 263.53 471.522 263.53H464.776C464.408 263.553 464.039 263.496 463.694 263.363C463.451 263.244 463.238 263.073 463.069 262.863C462.875 262.61 462.72 262.329 462.611 262.029C462.486 261.696 462.32 261.321 462.111 260.861L461.53 259.278ZM441.46 241.772C441.458 243.218 441.697 244.655 442.167 246.023C442.589 247.289 443.27 248.453 444.166 249.441C445.05 250.399 446.11 251.178 447.289 251.733C448.575 252.297 449.966 252.581 451.37 252.567C452.783 252.582 454.185 252.313 455.492 251.775C456.74 251.267 457.884 250.532 458.864 249.608C459.848 248.671 460.64 247.553 461.196 246.315C461.787 245.046 462.113 243.671 462.154 242.272V241.772C462.151 240.328 461.869 238.898 461.321 237.562C460.802 236.253 460.023 235.062 459.031 234.061C458.056 233.058 456.896 232.252 455.617 231.686C454.264 231.097 452.803 230.798 451.328 230.81C449.919 230.794 448.525 231.093 447.247 231.686C446.049 232.246 444.984 233.056 444.124 234.061C443.236 235.087 442.557 236.276 442.126 237.562C441.672 238.919 441.447 240.342 441.46 241.772Z" fill="#5C3E8D"/>
<path d="M480.85 223.226C480.475 222.309 480.475 221.517 480.85 220.891C481.225 220.225 481.974 219.933 483.182 219.933H491.676C491.937 219.92 492.197 219.962 492.441 220.055C492.684 220.148 492.906 220.291 493.092 220.475C493.463 220.853 493.748 221.308 493.924 221.808L503.626 249.442L513.12 221.808C513.37 221.058 513.703 220.6 514.077 220.35C514.452 220.1 514.993 219.975 515.701 219.975H524.529C525.04 219.954 525.55 220.04 526.028 220.225C526.35 220.366 526.625 220.598 526.819 220.891C526.977 221.184 527.036 221.521 526.985 221.85C526.952 222.212 526.854 222.565 526.694 222.892C525.819 225.059 524.862 227.393 523.863 229.936C522.822 232.478 521.781 235.145 520.656 237.896C519.532 240.647 518.408 243.481 517.284 246.315C516.159 249.149 515.035 251.984 513.952 254.734C512.87 257.485 511.829 260.111 510.83 262.653C509.83 265.196 508.914 267.489 508.082 269.614C507.249 271.739 506.499 273.573 505.916 275.199C505.291 276.782 504.834 278.033 504.501 278.908L504.584 278.741C504.447 279.317 504.143 279.839 503.71 280.242C503.303 280.62 502.766 280.829 502.211 280.825H494.3C493.259 280.825 492.551 280.617 492.176 280.242C491.801 279.825 491.593 279.241 491.593 278.491C491.577 278.262 491.62 278.032 491.718 277.824C491.801 277.658 491.843 277.574 491.926 277.533L497.298 263.528L480.85 223.226Z" fill="#5C3E8D"/>
<defs>
<filter id="filter0_d" x="0" y="0" width="600.947" height="438.61" filterUnits="userSpaceOnUse" color-interpolation-filters="sRGB">
<feFlood flood-opacity="0" result="BackgroundImageFix"/>
<feColorMatrix in="SourceAlpha" type="matrix" values="0 0 0 0 0 0 0 0 0 0 0 0 0 0 0 0 0 0 127 0" result="hardAlpha"/>
<feOffset/>
<feGaussianBlur stdDeviation="10"/>
<feComposite in2="hardAlpha" operator="out"/>
<feColorMatrix type="matrix" values="0 0 0 0 0 0 0 0 0 0 0 0 0 0 0 0 0 0 0.2 0"/>
<feBlend mode="normal" in2="BackgroundImageFix" result="effect1_dropShadow"/>
<feBlend mode="normal" in="SourceGraphic" in2="effect1_dropShadow" result="shape"/>
</filter>
<filter id="filter1_d" x="77" y="166" width="141.013" height="147" filterUnits="userSpaceOnUse" color-interpolation-filters="sRGB">
<feFlood flood-opacity="0" result="BackgroundImageFix"/>
<feColorMatrix in="SourceAlpha" type="matrix" values="0 0 0 0 0 0 0 0 0 0 0 0 0 0 0 0 0 0 127 0" result="hardAlpha"/>
<feOffset dx="10" dy="16"/>
<feGaussianBlur stdDeviation="3"/>
<feColorMatrix type="matrix" values="0 0 0 0 0.0588235 0 0 0 0 0.054902 0 0 0 0 0.054902 0 0 0 0.078 0"/>
<feBlend mode="normal" in2="BackgroundImageFix" result="effect1_dropShadow"/>
<feBlend mode="normal" in="SourceGraphic" in2="effect1_dropShadow" result="shape"/>
</filter>
</defs>
</svg>
