<svg width="688" height="182" viewBox="0 0 688 182" fill="none" xmlns="http://www.w3.org/2000/svg">
<path d="M26.8182 148.364H25.4091V160H26.8182V148.364ZM30.8026 154.75C30.8026 153.227 31.7457 152.364 33.0298 152.364C34.2741 152.364 35.0298 153.176 35.0298 154.545V160H36.3707V154.455C36.3707 152.227 35.1832 151.159 33.4162 151.159C32.098 151.159 31.2798 151.75 30.8707 152.636H30.7571V151.273H29.4616V160H30.8026V154.75ZM38.821 163.273H40.1619V158.659H40.2756C40.571 159.136 41.1392 160.182 42.821 160.182C45.0028 160.182 46.5256 158.432 46.5256 155.659C46.5256 152.909 45.0028 151.159 42.7983 151.159C41.0938 151.159 40.571 152.205 40.2756 152.659H40.1165V151.273H38.821V163.273ZM40.1392 155.636C40.1392 153.682 41.0028 152.364 42.6392 152.364C44.3438 152.364 45.1847 153.795 45.1847 155.636C45.1847 157.5 44.321 158.977 42.6392 158.977C41.0256 158.977 40.1392 157.614 40.1392 155.636ZM54.071 156.432C54.071 158.068 52.821 158.818 51.821 158.818C50.7074 158.818 49.9119 158 49.9119 156.727V151.273H48.571V156.818C48.571 159.045 49.7528 160.114 51.3892 160.114C52.7074 160.114 53.571 159.409 53.9801 158.523H54.071V160H55.4119V151.273H54.071V156.432ZM61.6634 151.273H59.7997V149.182H58.4588V151.273H57.1406V152.409H58.4588V157.864C58.4588 159.386 59.6861 160.114 60.8224 160.114C61.3224 160.114 61.6406 160.023 61.8224 159.955L61.5497 158.75C61.4361 158.773 61.2543 158.818 60.9588 158.818C60.3679 158.818 59.7997 158.636 59.7997 157.5V152.409H61.6634V151.273ZM71.9759 151.273H70.1122V149.182H68.7713V151.273H67.4531V152.409H68.7713V157.864C68.7713 159.386 69.9986 160.114 71.1349 160.114C71.6349 160.114 71.9531 160.023 72.1349 159.955L71.8622 158.75C71.7486 158.773 71.5668 158.818 71.2713 158.818C70.6804 158.818 70.1122 158.636 70.1122 157.5V152.409H71.9759V151.273ZM77.5582 160.182C79.331 160.182 80.6264 159.295 81.0355 157.977L79.7401 157.614C79.3991 158.523 78.6094 158.977 77.5582 158.977C75.9844 158.977 74.8991 157.96 74.8366 156.091H81.1719V155.523C81.1719 152.273 79.2401 151.159 77.4219 151.159C75.0582 151.159 73.4901 153.023 73.4901 155.705C73.4901 158.386 75.0355 160.182 77.5582 160.182ZM74.8366 154.932C74.9276 153.574 75.8878 152.364 77.4219 152.364C78.8764 152.364 79.8082 153.455 79.8082 154.932H74.8366ZM83.9773 151.273H82.4318L85.2045 155.636L82.4318 160H83.9773L86.0682 156.614L88.1591 160H89.7045L86.8864 155.636L89.7045 151.273H88.1591L86.0682 154.841L83.9773 151.273ZM95.4134 151.273H93.5497V149.182H92.2088V151.273H90.8906V152.409H92.2088V157.864C92.2088 159.386 93.4361 160.114 94.5724 160.114C95.0724 160.114 95.3906 160.023 95.5724 159.955L95.2997 158.75C95.1861 158.773 95.0043 158.818 94.7088 158.818C94.1179 158.818 93.5497 158.636 93.5497 157.5V152.409H95.4134V151.273Z" fill="#324F9E"/>
<rect x="0.5" y="127.5" width="687" height="54" rx="27" stroke="#BDBDBD"/>
<path d="M1.01136 113H8.875V110.972H3.47159V108.193H8.44886V106.165H3.47159V103.392H8.85227V101.364H1.01136V113ZM16.2003 106.222H10.8935V108.142H16.2003V106.222ZM18.3082 101.364V113H20.6946V105.398H20.7912L23.8026 112.943H25.4276L28.4389 105.426H28.5355V113H30.9219V101.364H27.8878L24.6832 109.182H24.5469L21.3423 101.364H18.3082ZM35.392 113.165C36.6818 113.165 37.517 112.602 37.9432 111.79H38.0114V113H40.3068V107.114C40.3068 105.034 38.5455 104.159 36.6023 104.159C34.5114 104.159 33.1364 105.159 32.8011 106.75L35.0398 106.932C35.2045 106.352 35.7216 105.926 36.5909 105.926C37.4148 105.926 37.8864 106.341 37.8864 107.057V107.091C37.8864 107.653 37.2898 107.727 35.7727 107.875C34.0455 108.034 32.4943 108.614 32.4943 110.562C32.4943 112.29 33.7273 113.165 35.392 113.165ZM36.0852 111.494C35.3409 111.494 34.8068 111.148 34.8068 110.483C34.8068 109.801 35.3693 109.466 36.2216 109.347C36.75 109.273 37.6136 109.148 37.9034 108.955V109.881C37.9034 110.795 37.1477 111.494 36.0852 111.494ZM42.1847 113H44.6051V104.273H42.1847V113ZM43.4006 103.148C44.1222 103.148 44.7131 102.597 44.7131 101.92C44.7131 101.25 44.1222 100.699 43.4006 100.699C42.6847 100.699 42.0938 101.25 42.0938 101.92C42.0938 102.597 42.6847 103.148 43.4006 103.148ZM48.9645 101.364H46.544V113H48.9645V101.364Z" fill="#324F9E"/>
<path d="M26.8182 52.3636H25.4091V64H26.8182V52.3636ZM30.8026 58.75C30.8026 57.2273 31.7457 56.3636 33.0298 56.3636C34.2741 56.3636 35.0298 57.1761 35.0298 58.5455V64H36.3707V58.4545C36.3707 56.2273 35.1832 55.1591 33.4162 55.1591C32.098 55.1591 31.2798 55.75 30.8707 56.6364H30.7571V55.2727H29.4616V64H30.8026V58.75ZM38.821 67.2727H40.1619V62.6591H40.2756C40.571 63.1364 41.1392 64.1818 42.821 64.1818C45.0028 64.1818 46.5256 62.4318 46.5256 59.6591C46.5256 56.9091 45.0028 55.1591 42.7983 55.1591C41.0938 55.1591 40.571 56.2045 40.2756 56.6591H40.1165V55.2727H38.821V67.2727ZM40.1392 59.6364C40.1392 57.6818 41.0028 56.3636 42.6392 56.3636C44.3438 56.3636 45.1847 57.7955 45.1847 59.6364C45.1847 61.5 44.321 62.9773 42.6392 62.9773C41.0256 62.9773 40.1392 61.6136 40.1392 59.6364ZM54.071 60.4318C54.071 62.0682 52.821 62.8182 51.821 62.8182C50.7074 62.8182 49.9119 62 49.9119 60.7273V55.2727H48.571V60.8182C48.571 63.0455 49.7528 64.1136 51.3892 64.1136C52.7074 64.1136 53.571 63.4091 53.9801 62.5227H54.071V64H55.4119V55.2727H54.071V60.4318ZM61.6634 55.2727H59.7997V53.1818H58.4588V55.2727H57.1406V56.4091H58.4588V61.8636C58.4588 63.3864 59.6861 64.1136 60.8224 64.1136C61.3224 64.1136 61.6406 64.0227 61.8224 63.9545L61.5497 62.75C61.4361 62.7727 61.2543 62.8182 60.9588 62.8182C60.3679 62.8182 59.7997 62.6364 59.7997 61.5V56.4091H61.6634V55.2727ZM67.7259 53.6136H71.3849V64H72.794V53.6136H76.4531V52.3636H67.7259V53.6136ZM80.8395 64.1818C82.6122 64.1818 83.9077 63.2955 84.3168 61.9773L83.0213 61.6136C82.6804 62.5227 81.8906 62.9773 80.8395 62.9773C79.2656 62.9773 78.1804 61.9602 78.1179 60.0909H84.4531V59.5227C84.4531 56.2727 82.5213 55.1591 80.7031 55.1591C78.3395 55.1591 76.7713 57.0227 76.7713 59.7045C76.7713 62.3864 78.3168 64.1818 80.8395 64.1818ZM78.1179 58.9318C78.2088 57.5739 79.169 56.3636 80.7031 56.3636C82.1577 56.3636 83.0895 57.4545 83.0895 58.9318H78.1179ZM87.2585 55.2727H85.7131L88.4858 59.6364L85.7131 64H87.2585L89.3494 60.6136L91.4403 64H92.9858L90.1676 59.6364L92.9858 55.2727H91.4403L89.3494 58.8409L87.2585 55.2727ZM98.6946 55.2727H96.831V53.1818H95.4901V55.2727H94.1719V56.4091H95.4901V61.8636C95.4901 63.3864 96.7173 64.1136 97.8537 64.1136C98.3537 64.1136 98.6719 64.0227 98.8537 63.9545L98.581 62.75C98.4673 62.7727 98.2855 62.8182 97.9901 62.8182C97.3991 62.8182 96.831 62.6364 96.831 61.5V56.4091H98.6946V55.2727ZM105.393 64H106.803V58.7955H113.007V64H114.416V52.3636H113.007V57.5455H106.803V52.3636H105.393V64ZM120.714 64.1818C122.487 64.1818 123.783 63.2955 124.192 61.9773L122.896 61.6136C122.555 62.5227 121.766 62.9773 120.714 62.9773C119.141 62.9773 118.055 61.9602 117.993 60.0909H124.328V59.5227C124.328 56.2727 122.396 55.1591 120.578 55.1591C118.214 55.1591 116.646 57.0227 116.646 59.7045C116.646 62.3864 118.192 64.1818 120.714 64.1818ZM117.993 58.9318C118.084 57.5739 119.044 56.3636 120.578 56.3636C122.033 56.3636 122.964 57.4545 122.964 58.9318H117.993ZM126.368 64H127.709V58.4773C127.709 57.2955 128.641 56.4318 129.913 56.4318C130.271 56.4318 130.641 56.5 130.732 56.5227V55.1591C130.578 55.1477 130.226 55.1364 130.027 55.1364C128.982 55.1364 128.072 55.7273 127.754 56.5909H127.663V55.2727H126.368V64ZM135.714 64.1818C137.487 64.1818 138.783 63.2955 139.192 61.9773L137.896 61.6136C137.555 62.5227 136.766 62.9773 135.714 62.9773C134.141 62.9773 133.055 61.9602 132.993 60.0909H139.328V59.5227C139.328 56.2727 137.396 55.1591 135.578 55.1591C133.214 55.1591 131.646 57.0227 131.646 59.7045C131.646 62.3864 133.192 64.1818 135.714 64.1818ZM132.993 58.9318C133.084 57.5739 134.044 56.3636 135.578 56.3636C137.033 56.3636 137.964 57.4545 137.964 58.9318H132.993Z" fill="#324F9E"/>
<rect x="0.5" y="31.5" width="319" height="54" rx="27" stroke="#BDBDBD"/>
<path d="M3.11364 5.36364H0.380682L4.39773 17H7.56818L11.5795 5.36364H8.85227L6.03409 14.2045H5.92614L3.11364 5.36364ZM15.8778 17.1705C18.5256 17.1705 20.1733 15.358 20.1733 12.6705C20.1733 9.96591 18.5256 8.15909 15.8778 8.15909C13.2301 8.15909 11.5824 9.96591 11.5824 12.6705C11.5824 15.358 13.2301 17.1705 15.8778 17.1705ZM15.8892 15.2955C14.6676 15.2955 14.0426 14.1761 14.0426 12.6534C14.0426 11.1307 14.6676 10.0057 15.8892 10.0057C17.0881 10.0057 17.7131 11.1307 17.7131 12.6534C17.7131 14.1761 17.0881 15.2955 15.8892 15.2955ZM21.7472 17H24.1676V12.0625C24.1676 10.9886 24.9517 10.25 26.0199 10.25C26.3551 10.25 26.8153 10.3068 27.0426 10.3807V8.23295C26.8267 8.18182 26.5256 8.14773 26.2812 8.14773C25.304 8.14773 24.5028 8.71591 24.1847 9.79545H24.0938V8.27273H21.7472V17ZM30.7145 11.9545C30.7202 10.8295 31.3906 10.1705 32.3679 10.1705C33.3395 10.1705 33.9247 10.8068 33.919 11.875V17H36.3395V11.4432C36.3395 9.40909 35.1463 8.15909 33.3281 8.15909C32.0327 8.15909 31.0952 8.79545 30.7031 9.8125H30.6009V8.27273H28.294V17H30.7145V11.9545ZM40.7358 17.1648C42.0256 17.1648 42.8608 16.6023 43.2869 15.7898H43.3551V17H45.6506V11.1136C45.6506 9.03409 43.8892 8.15909 41.946 8.15909C39.8551 8.15909 38.4801 9.15909 38.1449 10.75L40.3835 10.9318C40.5483 10.3523 41.0653 9.92614 41.9347 9.92614C42.7585 9.92614 43.2301 10.3409 43.2301 11.0568V11.0909C43.2301 11.6534 42.6335 11.7273 41.1165 11.875C39.3892 12.0341 37.8381 12.6136 37.8381 14.5625C37.8381 16.2898 39.071 17.1648 40.7358 17.1648ZM41.429 15.4943C40.6847 15.4943 40.1506 15.1477 40.1506 14.483C40.1506 13.8011 40.7131 13.4659 41.5653 13.3466C42.0938 13.2727 42.9574 13.1477 43.2472 12.9545V13.8807C43.2472 14.7955 42.4915 15.4943 41.429 15.4943ZM47.5284 17H49.9489V11.7614C49.9489 10.7955 50.5625 10.1534 51.3693 10.1534C52.1648 10.1534 52.6989 10.6989 52.6989 11.5568V17H55.0455V11.6705C55.0455 10.767 55.5625 10.1534 56.4432 10.1534C57.2159 10.1534 57.7955 10.6364 57.7955 11.608V17H60.2102V11.1307C60.2102 9.23864 59.0852 8.15909 57.4602 8.15909C56.1818 8.15909 55.1875 8.8125 54.8295 9.8125H54.7386C54.4602 8.80114 53.5682 8.15909 52.3693 8.15909C51.1932 8.15909 50.3011 8.78409 49.9375 9.8125H49.8352V8.27273H47.5284V17ZM66.0994 17.1705C68.2585 17.1705 69.7131 16.1193 70.054 14.5L67.8153 14.3523C67.571 15.017 66.946 15.3636 66.1392 15.3636C64.929 15.3636 64.1619 14.5625 64.1619 13.2614V13.2557H70.1051V12.5909C70.1051 9.625 68.3097 8.15909 66.0028 8.15909C63.4347 8.15909 61.7699 9.98295 61.7699 12.6761C61.7699 15.4432 63.4119 17.1705 66.0994 17.1705ZM64.1619 11.7557C64.2131 10.7614 64.9688 9.96591 66.0426 9.96591C67.0938 9.96591 67.821 10.7159 67.8267 11.7557H64.1619Z" fill="#324F9E"/>
<path d="M394.818 52.3636H393.409V64H394.818V52.3636ZM398.803 58.75C398.803 57.2273 399.746 56.3636 401.03 56.3636C402.274 56.3636 403.03 57.1761 403.03 58.5455V64H404.371V58.4545C404.371 56.2273 403.183 55.1591 401.416 55.1591C400.098 55.1591 399.28 55.75 398.871 56.6364H398.757V55.2727H397.462V64H398.803V58.75ZM406.821 67.2727H408.162V62.6591H408.276C408.571 63.1364 409.139 64.1818 410.821 64.1818C413.003 64.1818 414.526 62.4318 414.526 59.6591C414.526 56.9091 413.003 55.1591 410.798 55.1591C409.094 55.1591 408.571 56.2045 408.276 56.6591H408.116V55.2727H406.821V67.2727ZM408.139 59.6364C408.139 57.6818 409.003 56.3636 410.639 56.3636C412.344 56.3636 413.185 57.7955 413.185 59.6364C413.185 61.5 412.321 62.9773 410.639 62.9773C409.026 62.9773 408.139 61.6136 408.139 59.6364ZM422.071 60.4318C422.071 62.0682 420.821 62.8182 419.821 62.8182C418.707 62.8182 417.912 62 417.912 60.7273V55.2727H416.571V60.8182C416.571 63.0455 417.753 64.1136 419.389 64.1136C420.707 64.1136 421.571 63.4091 421.98 62.5227H422.071V64H423.412V55.2727H422.071V60.4318ZM429.663 55.2727H427.8V53.1818H426.459V55.2727H425.141V56.4091H426.459V61.8636C426.459 63.3864 427.686 64.1136 428.822 64.1136C429.322 64.1136 429.641 64.0227 429.822 63.9545L429.55 62.75C429.436 62.7727 429.254 62.8182 428.959 62.8182C428.368 62.8182 427.8 62.6364 427.8 61.5V56.4091H429.663V55.2727ZM435.726 53.6136H439.385V64H440.794V53.6136H444.453V52.3636H435.726V53.6136ZM448.839 64.1818C450.612 64.1818 451.908 63.2955 452.317 61.9773L451.021 61.6136C450.68 62.5227 449.891 62.9773 448.839 62.9773C447.266 62.9773 446.18 61.9602 446.118 60.0909H452.453V59.5227C452.453 56.2727 450.521 55.1591 448.703 55.1591C446.339 55.1591 444.771 57.0227 444.771 59.7045C444.771 62.3864 446.317 64.1818 448.839 64.1818ZM446.118 58.9318C446.209 57.5739 447.169 56.3636 448.703 56.3636C450.158 56.3636 451.089 57.4545 451.089 58.9318H446.118ZM455.259 55.2727H453.713L456.486 59.6364L453.713 64H455.259L457.349 60.6136L459.44 64H460.986L458.168 59.6364L460.986 55.2727H459.44L457.349 58.8409L455.259 55.2727ZM466.695 55.2727H464.831V53.1818H463.49V55.2727H462.172V56.4091H463.49V61.8636C463.49 63.3864 464.717 64.1136 465.854 64.1136C466.354 64.1136 466.672 64.0227 466.854 63.9545L466.581 62.75C466.467 62.7727 466.286 62.8182 465.99 62.8182C465.399 62.8182 464.831 62.6364 464.831 61.5V56.4091H466.695V55.2727ZM473.393 64H474.803V58.7955H481.007V64H482.416V52.3636H481.007V57.5455H474.803V52.3636H473.393V64ZM488.714 64.1818C490.487 64.1818 491.783 63.2955 492.192 61.9773L490.896 61.6136C490.555 62.5227 489.766 62.9773 488.714 62.9773C487.141 62.9773 486.055 61.9602 485.993 60.0909H492.328V59.5227C492.328 56.2727 490.396 55.1591 488.578 55.1591C486.214 55.1591 484.646 57.0227 484.646 59.7045C484.646 62.3864 486.192 64.1818 488.714 64.1818ZM485.993 58.9318C486.084 57.5739 487.044 56.3636 488.578 56.3636C490.033 56.3636 490.964 57.4545 490.964 58.9318H485.993ZM494.368 64H495.709V58.4773C495.709 57.2955 496.641 56.4318 497.913 56.4318C498.271 56.4318 498.641 56.5 498.732 56.5227V55.1591C498.578 55.1477 498.226 55.1364 498.027 55.1364C496.982 55.1364 496.072 55.7273 495.754 56.5909H495.663V55.2727H494.368V64ZM503.714 64.1818C505.487 64.1818 506.783 63.2955 507.192 61.9773L505.896 61.6136C505.555 62.5227 504.766 62.9773 503.714 62.9773C502.141 62.9773 501.055 61.9602 500.993 60.0909H507.328V59.5227C507.328 56.2727 505.396 55.1591 503.578 55.1591C501.214 55.1591 499.646 57.0227 499.646 59.7045C499.646 62.3864 501.192 64.1818 503.714 64.1818ZM500.993 58.9318C501.084 57.5739 502.044 56.3636 503.578 56.3636C505.033 56.3636 505.964 57.4545 505.964 58.9318H500.993Z" fill="#324F9E"/>
<rect x="368.5" y="31.5" width="319" height="54" rx="27" stroke="#BDBDBD"/>
<path d="M378.744 5.36364H376.295V12.6818H376.193L371.17 5.36364H369.011V17H371.472V9.67614H371.557L376.619 17H378.744V5.36364ZM383.22 17.1648C384.51 17.1648 385.345 16.6023 385.771 15.7898H385.839V17H388.135V11.1136C388.135 9.03409 386.374 8.15909 384.43 8.15909C382.339 8.15909 380.964 9.15909 380.629 10.75L382.868 10.9318C383.033 10.3523 383.55 9.92614 384.419 9.92614C385.243 9.92614 385.714 10.3409 385.714 11.0568V11.0909C385.714 11.6534 385.118 11.7273 383.601 11.875C381.874 12.0341 380.322 12.6136 380.322 14.5625C380.322 16.2898 381.555 17.1648 383.22 17.1648ZM383.913 15.4943C383.169 15.4943 382.635 15.1477 382.635 14.483C382.635 13.8011 383.197 13.4659 384.05 13.3466C384.578 13.2727 385.442 13.1477 385.732 12.9545V13.8807C385.732 14.7955 384.976 15.4943 383.913 15.4943ZM393.956 17.1705C396.28 17.1705 397.74 15.8068 397.854 13.8011H395.57C395.428 14.733 394.814 15.2557 393.984 15.2557C392.854 15.2557 392.121 14.3068 392.121 12.6364C392.121 10.9886 392.859 10.0455 393.984 10.0455C394.871 10.0455 395.439 10.6307 395.57 11.5H397.854C397.751 9.48295 396.223 8.15909 393.945 8.15909C391.297 8.15909 389.661 9.99432 389.661 12.6705C389.661 15.3239 391.268 17.1705 393.956 17.1705ZM401.824 11.9545C401.83 10.8295 402.517 10.1705 403.506 10.1705C404.489 10.1705 405.068 10.8011 405.062 11.875V17H407.483V11.4432C407.489 9.39773 406.284 8.15909 404.466 8.15909C403.142 8.15909 402.256 8.78409 401.858 9.8125H401.756V5.36364H399.403V17H401.824V11.9545ZM411.808 11.9545C411.814 10.8295 412.484 10.1705 413.462 10.1705C414.433 10.1705 415.018 10.8068 415.013 11.875V17H417.433V11.4432C417.433 9.40909 416.24 8.15909 414.422 8.15909C413.126 8.15909 412.189 8.79545 411.797 9.8125H411.695V8.27273H409.388V17H411.808V11.9545ZM421.83 17.1648C423.119 17.1648 423.955 16.6023 424.381 15.7898H424.449V17H426.744V11.1136C426.744 9.03409 424.983 8.15909 423.04 8.15909C420.949 8.15909 419.574 9.15909 419.239 10.75L421.477 10.9318C421.642 10.3523 422.159 9.92614 423.028 9.92614C423.852 9.92614 424.324 10.3409 424.324 11.0568V11.0909C424.324 11.6534 423.727 11.7273 422.21 11.875C420.483 12.0341 418.932 12.6136 418.932 14.5625C418.932 16.2898 420.165 17.1648 421.83 17.1648ZM422.523 15.4943C421.778 15.4943 421.244 15.1477 421.244 14.483C421.244 13.8011 421.807 13.4659 422.659 13.3466C423.188 13.2727 424.051 13.1477 424.341 12.9545V13.8807C424.341 14.7955 423.585 15.4943 422.523 15.4943ZM428.622 17H431.043V11.7614C431.043 10.7955 431.656 10.1534 432.463 10.1534C433.259 10.1534 433.793 10.6989 433.793 11.5568V17H436.139V11.6705C436.139 10.767 436.656 10.1534 437.537 10.1534C438.31 10.1534 438.889 10.6364 438.889 11.608V17H441.304V11.1307C441.304 9.23864 440.179 8.15909 438.554 8.15909C437.276 8.15909 436.281 8.8125 435.923 9.8125H435.832C435.554 8.80114 434.662 8.15909 433.463 8.15909C432.287 8.15909 431.395 8.78409 431.031 9.8125H430.929V8.27273H428.622V17ZM447.193 17.1705C449.352 17.1705 450.807 16.1193 451.148 14.5L448.909 14.3523C448.665 15.017 448.04 15.3636 447.233 15.3636C446.023 15.3636 445.256 14.5625 445.256 13.2614V13.2557H451.199V12.5909C451.199 9.625 449.403 8.15909 447.097 8.15909C444.528 8.15909 442.864 9.98295 442.864 12.6761C442.864 15.4432 444.506 17.1705 447.193 17.1705ZM445.256 11.7557C445.307 10.7614 446.062 9.96591 447.136 9.96591C448.188 9.96591 448.915 10.7159 448.92 11.7557H445.256Z" fill="#324F9E"/>
</svg>
