<svg width="45" height="41" viewBox="0 0 45 41" fill="none" xmlns="http://www.w3.org/2000/svg">
<path d="M45 4.99259C43.3441 5.812 41.5649 6.36579 39.6974 6.61493C41.6037 5.33981 43.0675 3.32061 43.7567 0.914753C41.9445 2.11491 39.9618 2.96049 37.8942 3.41497C36.2101 1.41264 33.8108 0.161255 31.1553 0.161255C26.0566 0.161255 21.9227 4.77444 21.9227 10.4642C21.9227 11.2719 22.0045 12.0581 22.1618 12.8124C14.4889 12.3826 7.68621 8.28082 3.1326 2.04725C2.33807 3.56896 1.88279 5.33903 1.88279 7.22699C1.88279 10.8016 3.51281 13.9551 5.98992 15.8029C4.52382 15.7516 3.08997 15.3097 1.80809 14.514C1.80756 14.5572 1.80756 14.6003 1.80756 14.6437C1.80756 19.6357 4.9899 23.8 9.21322 24.7465C7.85371 25.1592 6.42767 25.2196 5.04404 24.9231C6.21879 29.0164 9.62842 31.9951 13.6682 32.0785C10.5086 34.8418 6.52764 36.489 2.20236 36.489C1.45705 36.489 0.722285 36.4402 0 36.345C4.08568 39.2684 8.93848 40.9741 14.1521 40.9741C31.1338 40.9741 40.4198 25.2742 40.4198 11.6591C40.4198 11.2122 40.4111 10.7679 40.3931 10.3261C42.2006 8.86794 43.7606 7.06184 45 4.99259Z" fill="#55ACEE"/>
</svg>
